<svg xmlns="http://www.w3.org/2000/svg" id="svg6" version="1.1" viewBox="0 0 100 100.09"><style id="style2">#text{fill:#31b841}#braces{fill:#333}@media (prefers-color-scheme:dark){#braces{fill:#ececec}}</style><path id="braces" d="M50 0a2.94 2.94 0 0 0-2.94 2.9c0 3.64-2.58 6.27-5.67 6.27H26.33c-6.46 0-11.55 5.58-11.55 12.16v5.09a2.94 2.94 0 0 0 2.93 2.93 2.94 2.94 0 0 0 2.93-2.93v-5.1c0-3.63 2.6-6.28 5.7-6.28h15.05c3.63 0 6.5-1.95 8.6-4.66 2.11 2.71 5 4.66 8.63 4.66h15.06c3.08 0 5.67 2.65 5.67 6.29v5.09a2.94 2.94 0 0 0 2.94 2.93 2.94 2.94 0 0 0 2.93-2.93v-5.1c0-6.57-5.09-12.15-11.54-12.15H58.62c-3.09 0-5.69-2.63-5.69-6.27A2.94 2.94 0 0 0 50 0ZM17.7 41.1a2.94 2.94 0 0 0-2.92 2.93v5.1c0 6.57 5.1 12.15 11.55 12.15H41.4c3.09 0 5.67 2.64 5.67 6.28a2.94 2.94 0 0 0 5.87 0c0-3.64 2.6-6.28 5.7-6.28h15.05c6.45 0 11.54-5.58 11.54-12.16v-5.1a2.94 2.94 0 0 0-2.93-2.93 2.94 2.94 0 0 0-2.94 2.94v5.1c0 3.62-2.59 6.27-5.67 6.27H58.62c-3.63 0-6.52 1.97-8.62 4.68-2.1-2.71-4.98-4.68-8.61-4.68H26.33c-3.09 0-5.69-2.65-5.69-6.28v-5.1a2.94 2.94 0 0 0-2.93-2.93z"/><path id="text" d="M30.9 26.3a2.94 2.94 0 0 0-2.93 2.93v11.98a2.94 2.94 0 0 0 2.94 2.94 2.94 2.94 0 0 0 2.93-2.94V29.23a2.94 2.94 0 0 0-2.93-2.93zm12.73 0a2.94 2.94 0 0 0-2.93 2.93v11.98a2.94 2.94 0 0 0 2.93 2.94 2.94 2.94 0 0 0 2.94-2.94V29.23a2.94 2.94 0 0 0-2.94-2.93zm25.47 0a2.94 2.94 0 0 0-2.94 2.93v11.98a2.94 2.94 0 0 0 2.94 2.94 2.94 2.94 0 0 0 2.94-2.94V29.23a2.94 2.94 0 0 0-2.94-2.93zM56.37 37.47a2.94 2.94 0 0 0-2.94 2.93 2.94 2.94 0 0 0 2.94 2.94 2.94 2.94 0 0 0 2.93-2.94 2.94 2.94 0 0 0-2.93-2.93zM25.25 81.1c-.43 0-.96.3-1.6.9-.66.57-.98 1.08-.98 1.5 0 .44.3.96.87 1.57l5 5.5-5 5.5c-.58.64-.87 1.17-.87 1.58 0 .42.32.92.97 1.52.66.58 1.2.87 1.61.87.43 0 .95-.33 1.54-1l4.73-5.41 4.72 5.42c.58.66 1.08.99 1.51.99.45 0 .99-.29 1.62-.87.64-.58.97-1.09.97-1.52 0-.43-.29-.96-.85-1.59l-5-5.5 5-5.49c.56-.6.85-1.11.85-1.56 0-.45-.33-.96-.97-1.54-.65-.58-1.19-.87-1.62-.87-.41 0-.92.33-1.51 1l-4.72 5.41-4.73-5.42c-.57-.66-1.09-1-1.54-1zm-16.33.25c-1.14 0-2.25.23-3.33.7A8.94 8.94 0 0 0 .75 87 9.92 9.92 0 0 0 0 90.83c0 2.52.88 4.7 2.63 6.52a8.73 8.73 0 0 0 6.51 2.73c1.92 0 3.66-.6 5.2-1.8l.89.6.7.48c.64.44 1.12.67 1.44.67.51 0 1.02-.37 1.51-1.1.5-.72.75-1.29.75-1.68 0-.42-.3-.85-.9-1.3l-1.64-1.12a9.9 9.9 0 0 0 .92-4.1c0-2.72-.9-4.96-2.7-6.73a8.81 8.81 0 0 0-6.39-2.66zm61.2.22c-1.05 0-1.7.22-1.93.67a2 2 0 0 0-.25.67c-.02.18-.02.46-.02.85v13.8c0 .57.04 1 .14 1.29.2.6.88.92 2.04.92 1.06 0 1.7-.23 1.94-.68.13-.24.2-.46.22-.64a6 6 0 0 0 .05-.87v-2.81h3.1a6.92 6.92 0 0 0 5.94-3.65 6.6 6.6 0 0 0 .65-2.94c0-1.08-.22-2.05-.65-2.93a6.9 6.9 0 0 0-5.91-3.68h-5.31Zm18 0c-1.05 0-1.7.22-1.93.67a2 2 0 0 0-.25.67c-.02.18-.02.46-.02.85v13.8c0 .57.04 1 .14 1.29.2.6.88.92 2.04.92 1.06 0 1.7-.23 1.94-.68.13-.24.2-.46.22-.64a6 6 0 0 0 .05-.87v-2.81h3.1a6.92 6.92 0 0 0 5.94-3.65 6.6 6.6 0 0 0 .65-2.94c0-1.08-.22-2.05-.65-2.93a6.9 6.9 0 0 0-5.91-3.68h-5.31Zm-41.9.02c-1.05 0-1.7.22-1.95.65-.13.25-.21.47-.24.67-.02.18-.03.47-.03.85v13.8c0 .4.01.69.03.89.03.2.11.41.24.64.25.45.88.68 1.89.68 1.04 0 1.7-.23 1.94-.68.13-.23.2-.43.22-.62a6 6 0 0 0 .05-.87v-8.37l1.59 2.18a92.76 92.76 0 0 0 1.96 2.64l.2.27a2.16 2.16 0 0 0 2.7.5c.34-.2.55-.35.63-.45l.45-.6c.21-.28.72-.97 1.51-2.08a53 53 0 0 1 1.82-2.47v8.33c0 .58.04 1.01.12 1.3.08.21.2.38.35.5.15.11.36.2.65.3.28.07.66.12 1.14.12.48 0 .88-.05 1.2-.15.62-.2.93-.87.93-2.02V83.8c0-.37-.01-.67-.04-.86-.02-.2-.1-.43-.23-.67-.23-.45-.87-.68-1.93-.68-1.05 0-1.71.23-2 .68a522.5 522.5 0 0 0-5.63 7.38l-5.64-7.41-.15-.15a3.32 3.32 0 0 0-1.79-.5ZM8.98 85.75c1.18 0 2.24.45 3.18 1.36a4.77 4.77 0 0 1 1.45 3.63 4.73 4.73 0 0 1-4.6 4.95 4.55 4.55 0 0 1-3.2-1.37 4.83 4.83 0 0 1-1.42-3.6c0-1.48.47-2.67 1.41-3.58.95-.93 2-1.4 3.18-1.4zm63.32.22h3.1c.52 0 1.02.19 1.5.57.48.37.72.91.72 1.64 0 .73-.24 1.28-.72 1.64a2.4 2.4 0 0 1-1.47.55H72.3zm18 0h3.1c.52 0 1.02.19 1.5.57.48.37.72.91.72 1.64 0 .73-.24 1.28-.72 1.64a2.4 2.4 0 0 1-1.47.55H90.3z"/></svg>