<svg xmlns="http://www.w3.org/2000/svg" width="150" height="150"><style>#text{fill:#31b841;}#braces{fill:#333;}@media (prefers-color-scheme: dark){#braces{fill:#ececec;}}</style><path  id="braces" d="M166.4655 192.4903a2.9356 2.9356 0 0 0-2.9355 2.9024c0 3.6336-2.5871 6.2715-5.6758 6.2715h-15.0547c-6.459 0-11.5567 5.575-11.5567 12.1543v5.0898a2.9353 2.9353 0 0 0 2.9336 2.9356 2.9353 2.9353 0 0 0 2.9356-2.9356v-5.0898c0-3.6337 2.5988-6.2852 5.6875-6.2852h15.0547c3.632 0 6.5057-1.9535 8.6113-4.666 2.1055 2.7141 4.9898 4.666 8.623 4.666h15.0547c3.0888 0 5.6758 2.6515 5.6758 6.2852v5.0898a2.9353 2.9353 0 0 0 2.9336 2.9356 2.9353 2.9353 0 0 0 2.9356-2.9356v-5.0898c0-6.5792-5.086-12.1543-11.545-12.1543h-15.0547c-3.0887 0-5.6875-2.6379-5.6875-6.2715a2.9356 2.9356 0 0 0-2.9355-2.9024zm-32.289 41.0938a2.9353 2.9353 0 0 0-2.9337 2.9355v5.0918c0 6.5793 5.0977 12.1543 11.5567 12.1543h15.0547c3.0888 0 5.6758 2.6496 5.6758 6.2832a2.9356 2.9356 0 0 0 5.871 0c0-3.6336 2.5988-6.2832 5.6875-6.2832h15.0547c6.459 0 11.545-5.575 11.545-12.1543v-5.0918a2.9353 2.9353 0 0 0-2.9356-2.9355 2.9353 2.9353 0 0 0-2.9336 2.9355v5.0918c0 3.6337-2.587 6.2832-5.6758 6.2832h-15.0547c-3.6332 0-6.5175 1.9637-8.623 4.6778-2.1056-2.7125-4.9793-4.6778-8.6113-4.6778h-15.0547c-3.0887 0-5.6875-2.6495-5.6875-6.2832v-5.0918a2.9353 2.9353 0 0 0-2.9356-2.9355z" transform="translate(-91.467454,-167.53526)"/><path id="text" d="M147.3737 218.7892a2.9353 2.9353 0 0 0-2.9355 2.9355v11.9805a2.9353 2.9353 0 0 0 2.9355 2.9355 2.9353 2.9353 0 0 0 2.9355-2.9355v-11.9805a2.9353 2.9353 0 0 0-2.9355-2.9355zm12.7285 0a2.9353 2.9353 0 0 0-2.9355 2.9355v11.9805a2.9353 2.9353 0 0 0 2.9355 2.9355 2.9353 2.9353 0 0 0 2.9336-2.9355v-11.9805a2.9353 2.9353 0 0 0-2.9336-2.9355zm25.4649 0a2.9353 2.9353 0 0 0-2.9356 2.9355v11.9805a2.9353 2.9353 0 0 0 2.9356 2.9355 2.9353 2.9353 0 0 0 2.9355-2.9355v-11.9805a2.9353 2.9353 0 0 0-2.9355-2.9355zm-12.7344 11.168a2.9353 2.9353 0 0 0-2.9356 2.9335 2.9353 2.9353 0 0 0 2.9356 2.9356 2.9353 2.9353 0 0 0 2.9355-2.9356 2.9353 2.9353 0 0 0-2.9355-2.9336zm-31.1113 43.6308c-.4307 0-.9673.2979-1.6133.8945-.646.58-.9707 1.0848-.9707 1.5156 0 .431.2913.9533.871 1.5665l4.9942 5.4941-4.9941 5.4941c-.5798.6463-.8711 1.1755-.8711 1.5899 0 .4143.3247.921.9707 1.5176.6625.58 1.1992.8691 1.6133.8691.4306 0 .9447-.3312 1.541-.9941l4.7207-5.42 4.7207 5.42c.5797.6629 1.085.9941 1.5156.9941.4472 0 .9858-.289 1.6152-.8691.646-.58.9688-1.0867.9688-1.5176 0-.431-.2825-.9601-.8457-1.5899l-4.9922-5.4941 4.9922-5.4941c.5632-.5967.8457-1.119.8457-1.5664 0-.4475-.3228-.961-.9688-1.541-.646-.5801-1.1845-.8692-1.6152-.8692-.414 0-.9193.3312-1.5156.9941l-4.7207 5.418-4.7207-5.418c-.5797-.6629-1.0938-.9941-1.541-.9941zm-16.334.248c-1.143 0-2.2535.2313-3.3301.6953s-2.0292 1.102-2.8574 1.9141c-.8282.812-1.4894 1.8235-1.9864 3.0332-.4969 1.1933-.746 2.478-.746 3.8535 0 2.519.877 4.6907 2.6328 6.5137 1.7723 1.823 3.9424 2.7344 6.5097 2.7344 1.9214 0 3.653-.5978 5.1934-1.791.2153.1328.5136.3327.8945.5976.381.265.6125.421.6953.4707.646.4475 1.1267.6719 1.4414.6719.5135 0 1.0188-.3646 1.5157-1.0938.4969-.7292.7441-1.2917.7441-1.6894 0-.4143-.2982-.8455-.8945-1.293-.3313-.232-.8768-.6054-1.6387-1.1191.6129-1.359.92-2.726.92-4.1016 0-2.7179-.9036-4.963-2.709-6.7363-1.8055-1.7733-3.9334-2.6602-6.3848-2.6602zm61.205.2227c-1.0598 0-1.7054.2244-1.9374.6719-.1343.2486-.2168.473-.248.6719-.0158.1823-.0235.4625-.0235.8437v13.7969c0 .58.049 1.0112.1484 1.293.1987.6131.8776.9199 2.0371.9199 1.0599 0 1.7054-.2245 1.9375-.672.1335-.2484.209-.464.2246-.6464.0314-.1988.0469-.488.0469-.8691v-2.8086h3.1055c1.4741 0 2.8986-.5312 4.2734-1.5918.6791-.5138 1.2334-1.2008 1.664-2.0625.4307-.8784.6466-1.8565.6466-2.9336 0-1.0773-.2159-2.0553-.6465-2.9336h.002c-.4307-.8784-.985-1.5742-1.6641-2.088-1.3748-1.0606-2.7924-1.5917-4.25-1.5917h-5.3164zm18 0c-1.0598 0-1.7054.2244-1.9374.6719-.1343.2486-.2168.473-.248.6719-.0158.1823-.0235.4625-.0235.8437v13.7969c0 .58.049 1.0112.1484 1.293.1987.6131.8776.9199 2.0371.9199 1.0599 0 1.7054-.2245 1.9375-.672.1335-.2484.209-.464.2246-.6464.0314-.1988.0469-.488.0469-.8691v-2.8086h3.1055c1.4741 0 2.8986-.5312 4.2734-1.5918.6791-.5138 1.2334-1.2008 1.664-2.0625.4307-.8784.6466-1.8565.6466-2.9336 0-1.0773-.2159-2.0553-.6465-2.9336h.002c-.4307-.8784-.985-1.5742-1.6641-2.088-1.3748-1.0606-2.7924-1.5917-4.25-1.5917h-5.3164zm-41.914.0254c-1.0434 0-1.689.2156-1.9375.6465-.1342.2486-.2167.473-.248.6719-.0157.1823-.0235.4644-.0235.8457v13.7949c0 .3978.0078.6976.0234.8965.033.1988.1154.4124.248.6445.2485.4474.8764.6719 1.8868.6719 1.0434 0 1.691-.2245 1.9395-.672.1334-.2318.207-.4386.2226-.621.0314-.1989.0469-.488.0469-.8692v-8.3769c.0828.0994.6126.8286 1.5898 2.1875.9775 1.3424 1.6318 2.2205 1.963 2.6348l.1992.2734c.1324.1656.3482.3391.6464.5215.3148.1655.6552.248 1.0196.248.381 0 .7283-.091 1.043-.2734.331-.1988.538-.3479.621-.4473.083-.116.232-.3139.4473-.5957.2153-.2817.7206-.9795 1.5156-2.0898.795-1.127 1.3984-1.9472 1.8125-2.461v8.3282c0 .58.042 1.0112.125 1.293.0826.2156.1986.3821.3477.498.1489.1158.3647.2139.6465.2969.2815.083.6622.125 1.1425.125.4804 0 .8787-.049 1.1934-.1485.6294-.1988.9434-.8701.9434-2.0137V276.297c0-.3812-.0156-.6723-.047-.8711-.0164-.199-.0919-.4214-.2245-.67-.232-.4474-.8775-.6718-1.9375-.6718-1.0434 0-1.7065.2244-1.9883.6719-.9441 1.1932-2.8228 3.654-5.6387 7.3828l-5.6406-7.4082-.1484-.1485c-.0996-.1158-.3154-.2248-.6465-.3242-.3147-.1158-.6954-.1738-1.1426-.1738zm-37.2168 4.1523c1.176 0 2.2356.4558 3.1797 1.3672.9607.9115 1.4414 2.1208 1.4414 3.629 0 1.508-.4719 2.7085-1.416 3.6034-.9441.895-2.0037 1.3438-3.1797 1.3438-1.176 0-2.2444-.4557-3.205-1.3672-.9442-.928-1.4161-2.1305-1.4161-3.6055s.4719-2.6686 1.416-3.58c.9441-.9281 2.0037-1.3907 3.1797-1.3907zm63.3164.2227h3.1055c.5134 0 1.0099.191 1.4902.5722.4804.3647.7207.9115.7207 1.6407 0 .7294-.2403 1.2762-.7207 1.6406-.4803.3644-.968.5469-1.4648.5469h-3.1309v-4.4004zm18 0h3.1055c.5135 0 1.0099.191 1.4902.5722.4804.3647.7207.9115.7207 1.6407 0 .7294-.2403 1.2762-.7207 1.6406-.4803.3644-.968.5469-1.4648.5469h-3.1309v-4.4004z" transform="translate(-91.467454,-167.53526)"/></svg>
