/* XPM */
static char * test_xpm[] = {
"6 6 3 1",
" 	c #FF0000",
".	c #00FF00",
"+	c #0000FF",
"  ..++",
"  ..++",
"  ..++",
"  ..++",
"  ..++",
"  ..++"};
